<?xml version="1.0" encoding="UTF-8"?><svg id="Layer_2" xmlns="http://www.w3.org/2000/svg" viewBox="0 0 32 32"><g id="Layer_1-2"><path d="m10.67,14.35h-.77c-2.13-.08-4.2.73-5.72,2.24l-.21.25v7.36h3.63v-4.18l.49-.55.22-.26c1.16-1.19,2.6-2.06,4.19-2.54-.8-.61-1.42-1.4-1.82-2.32Z" style="fill:#fcfcf7;"/><path d="m27.86,16.56c-1.51-1.51-3.58-2.32-5.72-2.24-.32,0-.65.02-.97.05-.41.86-1.02,1.61-1.78,2.18,1.7.47,3.23,1.39,4.44,2.67l.22.25.48.55v4.19h3.5v-7.4l-.19-.25Z" style="fill:#fcfcf7;"/><path d="m9.87,12.61h.28c-.26-2.25.82-4.44,2.76-5.59-1.1-1.68-3.35-2.15-5.03-1.05-1.68,1.1-2.15,3.35-1.05,5.03.67,1.03,1.82,1.65,3.04,1.64v-.04Z" style="fill:#fcfcf7;"/><path d="m21.72,11.95c.01.2.01.41,0,.61.17.03.34.04.52.04h.17c2.01-.11,3.54-1.82,3.44-3.82-.11-2.01-1.82-3.54-3.82-3.44-1.21.06-2.31.73-2.93,1.77,1.63,1.07,2.62,2.88,2.63,4.84Z" style="fill:#fcfcf7;"/><circle cx="15.88" cy="11.96" r="3.97" style="fill:#fcfcf7;"/><path d="m16.1,18.04c-2.35-.09-4.63.77-6.32,2.4l-.22.25v5.63c.01.77.65,1.38,1.42,1.37h0s10.21,0,10.21,0c.77.01,1.41-.6,1.42-1.37h0v-5.61l-.21-.27c-1.68-1.63-3.96-2.5-6.3-2.4Z" style="fill:#fcfcf7;"/><rect width="32" height="32" style="fill:rgba(252,252,247,0);"/></g></svg>