<?xml version="1.0" encoding="UTF-8"?><svg id="Layer_2" xmlns="http://www.w3.org/2000/svg" viewBox="0 0 29 29"><g id="Layer_1-2"><path d="m9.52,11.8h-5.47c-.8,0-1.57.29-2.15.81-.57.53-.9,1.24-.9,1.99v10.6c.01,1.56,1.38,2.81,3.05,2.8h5.47c.8,0,1.57-.29,2.15-.81.57-.53.9-1.24.9-1.99v-10.6c0-.75-.33-1.46-.9-1.99-.57-.53-1.34-.82-2.15-.81Z" style="fill:none; stroke:#f8d35d; stroke-linecap:round; stroke-linejoin:round; stroke-width:2px;"/><path d="m9.52,1h-5.47c-1.64-.04-3,1.16-3.05,2.69v1.83c.05,1.53,1.41,2.73,3.05,2.69h5.47c1.64.04,3-1.16,3.05-2.69v-1.83c-.05-1.53-1.41-2.73-3.05-2.69Z" style="fill:none; stroke:#f8d35d; stroke-linecap:round; stroke-linejoin:round; stroke-width:2px;"/><path d="m19.48,17.2h5.47c.8,0,1.58-.28,2.15-.81.57-.53.9-1.24.9-1.99V3.8c0-.75-.33-1.46-.9-1.99-.57-.53-1.34-.82-2.15-.81h-5.47c-.8,0-1.57.29-2.15.81-.57.53-.9,1.24-.9,1.99v10.6c0,.75.33,1.46.9,1.99.57.53,1.34.82,2.15.81Z" style="fill:none; stroke:#f8d35d; stroke-linecap:round; stroke-linejoin:round; stroke-width:2px;"/><path d="m19.48,28h5.47c1.64.04,3-1.16,3.05-2.69v-1.83c-.05-1.53-1.41-2.73-3.05-2.69h-5.47c-1.64-.04-3,1.16-3.05,2.69v1.82c.05,1.53,1.41,2.73,3.05,2.69Z" style="fill:none; stroke:#f8d35d; stroke-linecap:round; stroke-linejoin:round; stroke-width:2px;"/></g></svg>