<?xml version="1.0" encoding="UTF-8"?><svg id="Layer_2" xmlns="http://www.w3.org/2000/svg" viewBox="0 0 27 27"><g id="Layer_1-2"><path d="m11.04,4.46c0-1.64-1.33-2.97-2.97-2.97s-2.97,1.33-2.97,2.97,1.33,2.97,2.97,2.97,2.97-1.33,2.97-2.97Z" style="fill:#f8d35d;"/><path d="m8.07,0C5.62,0,3.61,2.01,3.61,4.46s2,4.46,4.46,4.46,4.46-2.01,4.46-4.46S10.53,0,8.07,0Zm-2.97,4.46c0-1.64,1.33-2.97,2.97-2.97s2.97,1.33,2.97,2.97-1.33,2.97-2.97,2.97-2.97-1.33-2.97-2.97Z" style="fill:#f8d35d;"/><path d="m11.04,19.02c0-2.36,1.04-4.48,2.67-5.94-.25-.24-.55-.41-.88-.53-.63-.22-1.27-.39-1.9-.52l-2.17,5.45c-.25.63-1.14.63-1.39,0l-2.17-5.46c-.63.13-1.27.3-1.9.52-.72.25-1.28.81-1.57,1.5h2.42c.41,0,.75.33.75.75s-.33.75-.75.75H1.5v1.33h1.2c.41,0,.75.33.75.75s-.33.75-.75.75h-1.2v2.07h9.67c-.08-.47-.13-.94-.13-1.42Z" style="fill:#f8d35d;"/><path d="m19.68,14.08c.06.11.09.23.09.36v4.57c0,.41-.33.75-.75.75h-2.47c-.41,0-.75-.33-.75-.75s.33-.75.75-.75h1.72v-3.83c0-.13.04-.25.09-.36-2.44.32-4.32,2.41-4.32,4.93,0,2.75,2.23,4.98,4.98,4.98s4.98-2.23,4.98-4.98c0-2.53-1.89-4.61-4.32-4.93Z" style="fill:#f8d35d;"/><path d="m19.02,11.04c-1.49,0-2.88.42-4.07,1.13-.45-.47-1-.82-1.62-1.04-.92-.32-1.84-.55-2.75-.69-.35-.05-.68.14-.81.46l-1.69,4.27-1.69-4.27c-.13-.32-.47-.52-.81-.46-.92.14-1.85.38-2.75.69-1.68.59-2.82,2.21-2.82,4.03v6.04c0,.41.33.75.75.75h10.85c1.17,2.96,4.05,5.05,7.42,5.05,4.4,0,7.98-3.58,7.98-7.98s-3.59-7.98-7.98-7.98Zm-7.86,9.4H1.49v-2.07h1.21c.41,0,.75-.33.75-.75s-.33-.75-.75-.75h-1.2v-1.33h2.65c.41,0,.75-.33.75-.75s-.33-.75-.75-.75H1.73c.3-.69.85-1.24,1.57-1.5.63-.22,1.26-.39,1.9-.52l2.17,5.46c.25.63,1.14.63,1.39,0l2.16-5.46c.63.13,1.27.3,1.9.52.33.12.62.3.88.53-1.64,1.46-2.67,3.58-2.67,5.94,0,.5.05.97.13,1.43Zm7.86,5.06h0c-3.57,0-6.48-2.91-6.48-6.48s2.91-6.48,6.48-6.48h0c3.57,0,6.48,2.91,6.48,6.48,0,3.57-2.91,6.48-6.48,6.48Z" style="fill:#f8d35d;"/><path d="m19.02,12.54h0c3.57,0,6.47,2.91,6.47,6.48s-2.91,6.48-6.47,6.48h0c3.57,0,6.48-2.91,6.48-6.48,0-3.57-2.91-6.48-6.48-6.48Z" style="fill:#f8d35d;"/><path d="m19.02,13.69c-.41,0-.75.33-.75.75v3.83h-1.72c-.41,0-.75.33-.75.75s.33.75.75.75h2.47c.41,0,.75-.33.75-.75v-4.58c0-.41-.34-.75-.75-.75Z" style="fill:#151515;"/></g></svg>