<?xml version="1.0" encoding="UTF-8"?><svg id="Layer_2" xmlns="http://www.w3.org/2000/svg" viewBox="0 0 29 29"><g id="Layer_1-2"><path d="m1,10h27M7,1v3m15-3v3M5.5,16h3m-3,6h3m4.5-6h3m-3,6h3m4.5-6h3m-3,6h3m-17.7,6h17.4c1.68,0,2.52,0,3.16-.33.56-.29,1.02-.75,1.31-1.31.33-.64.33-1.48.33-3.16v-14.4c0-1.68,0-2.52-.33-3.16-.29-.56-.75-1.02-1.31-1.31-.64-.33-1.48-.33-3.16-.33H5.8c-1.68,0-2.52,0-3.16.33-.56.29-1.02.75-1.31,1.31-.33.64-.33,1.48-.33,3.16v14.4c0,1.68,0,2.52.33,3.16.29.56.75,1.02,1.31,1.31.64.33,1.48.33,3.16.33Z" style="fill:none; stroke:#f8d35d; stroke-linecap:round; stroke-linejoin:round; stroke-width:2px;"/></g></svg>