<?xml version="1.0" encoding="UTF-8"?><svg id="Layer_2" xmlns="http://www.w3.org/2000/svg" viewBox="0 0 27 28.52"><g id="Layer_1-2"><path d="m13.5,9.28c-2.75,0-4.97,2.23-4.97,4.97s2.23,4.97,4.97,4.97,4.97-2.23,4.97-4.97-2.23-4.97-4.97-4.97Zm-2.98,4.97c0-1.65,1.34-2.98,2.98-2.98s2.98,1.34,2.98,2.98-1.34,2.98-2.98,2.98-2.98-1.34-2.98-2.98Z" style="fill:#f8d35d; fill-rule:evenodd;"/><path d="m13.47,0c-.59,0-1.08,0-1.49.03-.42.03-.82.09-1.2.25-.89.37-1.6,1.08-1.97,1.97-.19.47-.24.96-.26,1.49-.02.43-.23.79-.55.97-.32.18-.74.19-1.12,0-.47-.25-.92-.45-1.42-.51-.96-.13-1.93.13-2.7.72-.33.25-.58.57-.82.92-.23.34-.47.76-.77,1.27l-.03.06c-.29.51-.54.94-.72,1.3-.19.38-.33.75-.38,1.17-.13.96.13,1.93.72,2.7.31.4.71.69,1.16.97.36.23.56.59.56.96,0,.37-.2.73-.56.96-.45.28-.85.57-1.16.97-.59.77-.85,1.74-.72,2.7.05.41.2.79.38,1.17.18.36.42.79.72,1.3l.03.06c.29.51.54.94.77,1.27.24.35.49.66.82.92.77.59,1.74.85,2.7.72.5-.07.95-.27,1.42-.51.38-.2.8-.19,1.12,0,.32.18.54.54.55.97.02.53.07,1.02.26,1.49.37.89,1.08,1.6,1.97,1.97.39.16.78.22,1.2.25.4.03.9.03,1.49.03h.07c.59,0,1.08,0,1.49-.03.42-.03.82-.09,1.2-.25.89-.37,1.6-1.08,1.97-1.97.19-.47.24-.96.26-1.49.02-.43.23-.79.55-.97.32-.18.74-.19,1.12,0,.47.25.92.45,1.42.51.96.13,1.93-.13,2.7-.72.33-.25.58-.57.82-.92.23-.34.47-.76.77-1.27l.03-.06c.29-.51.54-.94.72-1.3.19-.38.33-.75.38-1.17.13-.96-.13-1.93-.72-2.7-.31-.4-.71-.69-1.16-.97-.36-.23-.56-.59-.56-.96s.2-.73.56-.96c.45-.28.85-.57,1.16-.97.59-.77.85-1.74.72-2.7-.05-.41-.2-.79-.38-1.17-.18-.36-.42-.79-.72-1.3l-.03-.06c-.29-.51-.54-.94-.77-1.27-.24-.35-.49-.66-.82-.92-.77-.59-1.74-.85-2.7-.72-.5.07-.95.27-1.42.51-.38.2-.8.19-1.12,0-.32-.18-.54-.54-.55-.97-.02-.53-.07-1.02-.26-1.49-.37-.89-1.08-1.6-1.97-1.97-.39-.16-.78-.22-1.2-.25C14.62,0,14.12,0,13.53,0h-.07Zm-1.93,2.12c.1-.04.26-.08.58-.1.33-.02.75-.02,1.38-.02s1.06,0,1.38.02c.32.02.47.06.58.1.41.17.73.49.9.9.05.13.1.33.11.8.04,1.05.58,2.06,1.54,2.62.96.56,2.11.52,3.04.03.42-.22.61-.28.75-.3.44-.06.88.06,1.23.33.09.07.2.18.38.45.18.27.4.64.71,1.19.32.55.53.91.67,1.21.14.29.18.44.2.55.06.44-.06.88-.33,1.23-.08.11-.24.25-.64.5-.89.56-1.5,1.54-1.5,2.65,0,1.11.61,2.09,1.5,2.65.4.25.55.39.64.5.27.35.39.79.33,1.23-.01.11-.06.26-.2.55-.14.3-.36.66-.67,1.21-.32.55-.53.91-.71,1.19-.18.27-.29.38-.38.45-.35.27-.79.39-1.23.33-.14-.02-.33-.08-.75-.3-.93-.49-2.08-.53-3.04.03-.96.56-1.51,1.57-1.54,2.62-.02.47-.06.67-.11.8-.17.41-.49.73-.9.9-.1.04-.26.08-.58.1-.33.02-.75.02-1.38.02s-1.06,0-1.38-.02c-.32-.02-.47-.06-.58-.1-.41-.17-.73-.49-.9-.9-.05-.13-.1-.33-.11-.8-.04-1.05-.58-2.06-1.54-2.62-.96-.56-2.11-.52-3.04-.03-.42.22-.61.28-.75.3-.44.06-.88-.06-1.23-.33-.09-.07-.2-.18-.38-.45-.18-.27-.4-.64-.71-1.19-.32-.55-.53-.91-.67-1.21-.14-.29-.18-.44-.2-.55-.06-.44.06-.88.33-1.23.08-.11.24-.25.64-.5.89-.56,1.5-1.54,1.5-2.65,0-1.11-.61-2.09-1.5-2.65-.4-.25-.55-.39-.64-.5-.27-.35-.39-.79-.33-1.23.01-.11.06-.26.2-.55.14-.3.36-.66.67-1.21.32-.55.53-.91.71-1.19.18-.27.29-.38.38-.45.35-.27.79-.39,1.23-.33.14.02.33.08.75.3.93.49,2.08.53,3.04-.03.96-.56,1.51-1.57,1.54-2.62.02-.47.06-.67.11-.8.17-.41.49-.73.9-.9Z" style="fill:#f8d35d; fill-rule:evenodd;"/></g></svg>